# xmcd CD database file
#
# Track frame offsets:
#	150
#	14863
#	27513
#	40813
#	52013
#	67625
#	82200
#	96013
#	106750
#	121938
#	137288
#	149675
#	159363
#	172275
#
# Disc length: 2469 seconds
#
# Revision: 0
# Processed by: cddbd v1.4PL0 Copyright (c) Steve Scherf et al.
# Submitted via: CDex 1.50
#
DISCID=c009a30e
DTITLE=Don Williams - It Must Be Love
DYEAR=1900
DGENRE=Country
TTITLE0=When I'm with You
TTITLE1=You're My Best Friend
TTITLE2=Where Are You
TTITLE3=It Must Be Love
TTITLE4=Til the Rivers All Run Dry
TTITLE5=My Woman's Love
TTITLE6=I'm Just a Country Boy
TTITLE7=And Love Me Tonight
TTITLE8=Don't You Think that It's Time
TTITLE9=All I'm Missing Is You
TTITLE10=Some Broken Hearts Never Mend
TTITLE11=Endless Sleep
TTITLE12=Goodbye Isn't Really Good at All
TTITLE13=I'm Getting Good at Missing You
EXTD=
EXTT0=
EXTT1=
EXTT2=
EXTT3=
EXTT4=
EXTT5=
EXTT6=
EXTT7=
EXTT8=
EXTT9=
EXTT10=
EXTT11=
EXTT12=
EXTT13=
PLAYORDER=
